<svg width="980" height="980" viewBox="0 0 980 980" fill="none" xmlns="http://www.w3.org/2000/svg">
<path d="M508.812 11.9999C524.63 13.3344 540.058 14.0195 555.284 16.1475C581.634 19.8302 607.583 25.457 633.062 33.4177C662.131 42.5002 690.069 54.1767 716.846 68.5163C742.201 82.0949 766.416 97.5768 788.526 116.091C799.465 125.25 810.096 134.781 820.746 144.278C838.56 160.161 853.863 178.307 868.624 197.004C885.38 218.228 899.947 240.811 912.927 264.489C928.257 292.453 940.434 321.793 949.438 352.292C955.078 371.396 959.052 391.041 962.841 410.624C965.402 423.859 966.995 437.367 967.847 450.827C969.11 470.793 970.172 490.842 969.734 510.822C969.385 526.768 966.778 542.675 964.982 558.578C962.114 583.981 956.023 608.664 948.508 633.069C939.501 662.323 927.677 690.372 913.198 717.283C899.642 742.482 884.238 766.523 865.892 788.552C857.294 798.876 848.206 808.79 839.498 819.024C825.89 835.018 809.739 848.244 793.824 861.774C775.395 877.441 755.569 891.154 734.841 903.437C712.03 916.953 688.421 929.171 663.302 937.88C642.723 945.015 621.911 951.604 600.902 957.337C587.696 960.94 574.006 963.034 560.406 964.86C545.824 966.817 531.116 968.077 516.422 968.888C501.198 969.729 485.89 970.451 470.682 969.783C454.887 969.09 439.155 966.786 423.419 964.982C389.954 961.146 357.641 952.36 326.127 940.852C296.964 930.203 269.101 916.709 242.584 900.363C222.72 888.118 203.823 874.608 185.683 860.022C177.868 853.739 170.612 846.732 163.36 839.784C155.274 832.037 146.902 824.474 139.682 815.959C125.15 798.819 110.676 781.56 97.3596 763.48C81.6912 742.206 68.9283 719.046 57.6331 695.142C44.0947 666.492 33.2685 636.832 26.096 605.956C22.2266 589.298 18.7877 572.497 16.198 555.601C14.2655 542.992 13.7139 530.141 13.0789 517.371C12.3959 503.637 11.5409 489.833 12.2004 476.129C13.0246 459.004 14.6122 441.844 17.1638 424.894C20.0202 405.919 23.4083 386.923 28.2577 368.379C33.0299 350.13 39.3572 332.22 46.0605 314.563C51.6297 299.894 58.1247 285.494 65.2977 271.533C77.4563 247.87 91.66 225.363 107.607 204.062C115.621 193.356 124.362 183.136 133.401 173.271C144.725 160.913 156.134 148.529 168.535 137.291C181.911 125.17 196.113 113.871 210.605 103.087C234.423 85.3646 259.901 70.2321 286.828 57.6712C315.525 44.2848 345.096 33.2012 375.996 26.0904C392.662 22.2551 409.458 18.8033 426.352 16.1964C438.796 14.2763 451.478 13.6804 464.082 13.0847C478.816 12.3884 493.58 12.3332 508.812 11.9999ZM652.718 394.148C651.181 393.175 649.695 392.111 648.102 391.242C530.318 326.987 412.528 262.741 294.725 198.519C287.94 194.821 281.324 191.283 273.112 190.64C262.048 189.773 252.681 192.118 244.203 200.254C236.934 207.651 233.796 216.495 233.801 226.896C233.885 403.117 233.861 579.338 233.866 755.56C233.866 757.391 233.776 759.243 234.003 761.05C234.982 768.844 237.686 775.856 243.929 781.914C257.011 794.29 271.864 796.489 288.778 787.329C320.918 769.922 352.962 752.338 385.066 734.863C465.085 691.305 545.122 647.779 625.135 604.209C635.175 598.741 645.11 593.08 655.837 587.333C656.593 586.987 657.372 586.684 658.101 586.288C696.231 565.567 734.311 544.754 772.507 524.155C786.349 516.69 793.665 505.937 793.18 489.734C792.795 476.871 787.314 467.576 776.497 461.186C771.087 457.992 765.491 455.112 759.97 452.106C730.102 435.845 700.251 419.555 670.346 403.364C664.668 400.29 658.772 397.619 652.718 394.148Z" fill="white"/>
<path d="M243.588 781.34C237.686 775.856 234.982 768.844 234.003 761.05C233.776 759.243 233.866 757.391 233.866 755.56C233.861 579.339 233.885 403.117 233.801 226.896C233.796 216.495 236.935 207.651 244.704 200.386C260.701 215.137 276.202 229.749 291.692 244.374C315.534 266.885 339.389 289.384 363.202 311.927C397.653 344.541 432.052 377.212 466.515 409.815C480.176 422.739 494.002 435.49 507.654 448.424C522.271 462.272 536.772 476.243 551.161 490.46C532.388 508.368 513.801 526.001 495.162 543.579C435.806 599.558 376.402 655.486 317.075 711.496C292.502 734.696 268.079 758.054 243.588 781.34Z" fill="#3FC4FF"/>
<path d="M243.758 781.627C268.079 758.054 292.502 734.696 317.075 711.496C376.402 655.486 435.806 599.558 495.162 543.579C513.801 526.001 532.387 508.368 551.329 490.486C551.659 490.213 552 490.227 552.173 490.497C555.872 494.052 559.426 497.307 562.92 500.625C585.468 522.031 607.973 543.483 630.557 564.851C638.643 572.502 646.91 579.961 655.094 587.508C645.11 593.08 635.175 598.741 625.135 604.209C545.122 647.779 465.085 691.305 385.066 734.863C352.962 752.338 320.918 769.922 288.778 787.329C271.864 796.489 257.011 794.29 243.758 781.627Z" fill="#FF3B45"/>
<path d="M552 490.227C552 490.227 551.659 490.213 551.492 490.187C536.772 476.243 522.271 462.272 507.654 448.424C494.002 435.49 480.176 422.739 466.515 409.815C432.052 377.212 397.653 344.541 363.202 311.927C339.389 289.384 315.534 266.885 291.692 244.374C276.202 229.749 260.701 215.137 245.002 200.245C252.681 192.119 262.048 189.773 273.112 190.64C281.324 191.283 287.94 194.821 294.725 198.519C412.528 262.741 530.318 326.987 648.102 391.242C649.695 392.111 651.181 393.175 652.548 394.626C636.759 409.838 621.111 424.543 605.527 439.314C587.655 456.254 569.84 473.254 552 490.227Z" fill="#01E677"/>
<path d="M552.173 490.497C569.84 473.254 587.655 456.254 605.527 439.314C621.111 424.543 636.759 409.838 652.678 394.933C658.772 397.619 664.668 400.29 670.346 403.364C700.251 419.555 730.103 435.845 759.97 452.106C765.491 455.112 771.087 457.992 776.497 461.186C787.314 467.576 792.795 476.871 793.18 489.734C793.666 505.937 786.349 516.69 772.507 524.155C734.311 544.754 696.231 565.567 658.101 586.288C657.372 586.684 656.593 586.987 655.466 587.421C646.91 579.961 638.643 572.502 630.557 564.851C607.973 543.483 585.468 522.031 562.92 500.625C559.426 497.307 555.872 494.052 552.173 490.497Z" fill="#FFC929"/>
</svg>
